<svg width="600" height="600" viewBox="0 0 600 600" fill="none" xmlns="http://www.w3.org/2000/svg">
<path fill-rule="evenodd" clip-rule="evenodd" d="M211.891 12.2885L504.202 79.7738L591.914 366.665L387.314 586.071L95.0035 518.586L7.29199 231.695L211.891 12.2885ZM373.877 199.646C370.743 186.971 357.927 174.155 345.252 171.021C332.577 167.887 324.842 175.622 327.976 188.297L392.287 448.401C395.421 461.076 408.237 473.892 420.912 477.026C433.587 480.16 441.322 472.425 438.188 459.75L373.877 199.646ZM433.817 207.656C431.031 196.389 419.639 184.997 408.373 182.211C397.106 179.426 390.231 186.301 393.016 197.568L439.673 386.27C442.459 397.537 453.851 408.929 465.118 411.715C476.384 414.501 483.26 407.625 480.474 396.359L433.817 207.656ZM468.905 198.34C478.059 200.603 487.315 209.859 489.578 219.013L519.212 338.865C521.475 348.019 515.889 353.606 506.735 351.342C497.581 349.079 488.325 339.823 486.061 330.669L456.428 210.817C454.164 201.663 459.751 196.077 468.905 198.34ZM253.905 431.259C241.23 428.125 228.415 415.309 225.281 402.634L160.97 142.53C157.836 129.855 165.57 122.12 178.245 125.254C190.921 128.388 203.736 141.204 206.87 153.879L271.181 413.983C274.315 426.658 266.581 434.393 253.905 431.259ZM190.785 420.068C179.518 417.283 168.126 405.891 165.341 394.624L118.684 205.921C115.898 194.654 122.773 187.779 134.04 190.565C145.307 193.351 156.699 204.742 159.484 216.009L206.141 404.712C208.927 415.979 202.052 422.854 190.785 420.068ZM109.579 383.266C111.843 392.421 121.099 401.676 130.253 403.94C139.407 406.203 144.993 400.617 142.73 391.463L113.096 271.611C110.833 262.457 101.577 253.201 92.4228 250.937C83.2685 248.674 77.6824 254.26 79.9458 263.414L109.579 383.266ZM158.241 489.235L359.287 538.944C377.793 543.519 389.086 532.226 384.51 513.721L334.801 312.674C334.305 310.667 333.643 308.658 332.832 306.664C332.704 305.984 332.553 305.292 332.38 304.59L290.955 137.051L458.494 178.475C477 183.051 488.293 171.758 483.717 153.252C479.142 134.747 460.43 116.035 441.925 111.46L240.878 61.7509C222.372 57.1754 211.079 68.4681 215.655 86.9739L265.364 288.021C265.86 290.027 266.523 292.037 267.333 294.03C267.462 294.711 267.612 295.402 267.786 296.104L309.21 463.643L141.671 422.219C123.165 417.644 111.873 428.936 116.448 447.442C121.024 465.948 139.735 484.659 158.241 489.235Z" fill="#C71717"/>
</svg>
