<svg width="420" height="500" viewBox="0 0 420 500" fill="none" xmlns="http://www.w3.org/2000/svg">
<path d="M2.12973 396.513C-2.95244 375.958 9.59052 363.415 30.1452 368.498L253.451 423.71C274.005 428.792 294.788 449.575 299.87 470.13C304.952 490.684 292.409 503.227 271.855 498.145L48.5493 442.933C27.9947 437.851 7.2119 417.068 2.12973 396.513Z" fill="url(#paint0_linear_13_2)"/>
<path d="M271.855 498.145C251.3 493.063 230.517 472.28 225.435 451.725L170.223 228.42C165.14 207.865 177.683 195.322 198.238 200.405C218.793 205.487 239.575 226.27 244.658 246.824L299.87 470.13C304.952 490.684 292.409 503.227 271.855 498.145Z" fill="url(#paint1_linear_13_2)"/>
<path d="M418.542 103.762C423.624 124.316 411.081 136.859 390.526 131.777L167.221 76.5648C146.666 71.4827 125.884 50.6999 120.801 30.1452C115.719 9.59051 128.262 -2.95244 148.817 2.12973L372.122 57.3422C392.677 62.4244 413.46 83.2071 418.542 103.762Z" fill="url(#paint2_linear_13_2)"/>
<path d="M148.817 2.12973C169.372 7.2119 190.154 27.9948 195.237 48.5495L250.449 271.855C255.531 292.409 242.988 304.952 222.434 299.87C201.879 294.788 181.096 274.005 176.014 253.451L120.801 30.1452C115.719 9.59051 128.262 -2.95244 148.817 2.12973Z" fill="url(#paint3_linear_13_2)"/>
<defs>
<linearGradient id="paint0_linear_13_2" x1="164.85" y1="199.893" x2="144.414" y2="487.821" gradientUnits="userSpaceOnUse">
<stop offset="0.335" stop-color="#C71717"/>
<stop offset="1" stop-color="#670C0C"/>
</linearGradient>
<linearGradient id="paint1_linear_13_2" x1="164.85" y1="199.893" x2="144.414" y2="487.821" gradientUnits="userSpaceOnUse">
<stop offset="0.335" stop-color="#C71717"/>
<stop offset="1" stop-color="#670C0C"/>
</linearGradient>
<linearGradient id="paint2_linear_13_2" x1="257.944" y1="301.008" x2="277.868" y2="11.3417" gradientUnits="userSpaceOnUse">
<stop offset="0.335" stop-color="#C71717"/>
<stop offset="1" stop-color="#670C0C"/>
</linearGradient>
<linearGradient id="paint3_linear_13_2" x1="257.944" y1="301.008" x2="277.868" y2="11.3417" gradientUnits="userSpaceOnUse">
<stop offset="0.335" stop-color="#C71717"/>
<stop offset="1" stop-color="#670C0C"/>
</linearGradient>
</defs>
</svg>
