<svg width="420" height="420" viewBox="0 0 420 420" fill="none" xmlns="http://www.w3.org/2000/svg">
<g clip-path="url(#clip0_11_11)">
<path d="M248.043 102.184C258.606 104.796 269.286 115.476 271.898 126.038L325.49 342.791C328.102 353.354 321.656 359.8 311.093 357.188C300.531 354.576 289.851 343.897 287.239 333.334L233.647 116.581C231.035 106.018 237.481 99.5725 248.043 102.184Z" fill="url(#paint0_linear_11_11)"/>
<path d="M300.644 111.509C310.033 113.831 319.526 123.324 321.847 132.713L360.728 289.965C363.05 299.354 357.32 305.084 347.931 302.762C338.542 300.441 329.049 290.948 326.728 281.559L287.847 124.306C285.525 114.917 291.255 109.188 300.644 111.509Z" fill="url(#paint1_linear_11_11)"/>
<path d="M351.087 124.95C358.716 126.836 366.429 134.549 368.315 142.178L393.01 242.054C394.896 249.683 390.241 254.338 382.612 252.452C374.984 250.566 367.271 242.853 365.384 235.224L340.69 135.347C338.804 127.719 343.459 123.064 351.087 124.95Z" fill="url(#paint2_linear_11_11)"/>
<path d="M171.922 319.048C161.359 316.437 150.679 305.757 148.068 295.194L94.4753 78.4411C91.8636 67.8785 98.3092 61.4329 108.872 64.0446C119.434 66.6562 130.114 77.336 132.726 87.8986L186.318 304.652C188.93 315.214 182.484 321.66 171.922 319.048Z" fill="url(#paint3_linear_11_11)"/>
<path d="M119.321 309.723C109.932 307.402 100.439 297.909 98.1179 288.52L59.237 131.267C56.9156 121.878 62.645 116.149 72.034 118.47C81.423 120.792 90.9161 130.285 93.2376 139.674L132.118 296.926C134.44 306.315 128.71 312.045 119.321 309.723Z" fill="url(#paint4_linear_11_11)"/>
<path d="M68.8779 296.283C61.2494 294.396 53.5362 286.683 51.65 279.055L26.9554 179.178C25.0692 171.55 29.7244 166.895 37.3529 168.781C44.9815 170.667 52.6947 178.38 54.5808 186.009L79.2754 285.885C81.1616 293.514 76.5065 298.169 68.8779 296.283Z" fill="url(#paint5_linear_11_11)"/>
<path d="M57.3742 332.534C53.5612 317.113 62.9718 307.702 78.3933 311.515L245.932 352.94C261.354 356.753 276.946 372.345 280.759 387.767C284.572 403.188 275.162 412.599 259.74 408.786L92.2013 367.362C76.7798 363.549 61.1872 347.956 57.3742 332.534Z" fill="url(#paint6_linear_11_11)"/>
<path d="M259.74 408.786C244.319 404.973 228.726 389.38 224.913 373.959L183.489 206.42C179.676 190.998 189.086 181.588 204.508 185.401C219.929 189.214 235.522 204.806 239.335 220.228L280.759 387.767C284.572 403.188 275.162 412.599 259.74 408.786Z" fill="url(#paint7_linear_11_11)"/>
<path d="M363.431 87.3771C367.244 102.799 357.833 112.209 342.412 108.396L174.873 66.9721C159.451 63.1591 143.859 47.5664 140.046 32.1449C136.233 16.7234 145.643 7.31281 161.065 11.1258L328.604 52.5499C344.025 56.3629 359.618 71.9556 363.431 87.3771Z" fill="url(#paint8_linear_11_11)"/>
<path d="M161.065 11.1258C176.486 14.9388 192.079 30.5315 195.892 45.9531L237.316 213.492C241.129 228.913 231.719 238.324 216.297 234.511C200.876 230.698 185.283 215.105 181.47 199.684L140.046 32.1449C136.233 16.7234 145.643 7.31281 161.065 11.1258Z" fill="url(#paint9_linear_11_11)"/>
</g>
<defs>
<linearGradient id="paint0_linear_11_11" x1="393.435" y1="357.95" x2="377.603" y2="93.1605" gradientUnits="userSpaceOnUse">
<stop offset="0.335" stop-color="#C71717"/>
<stop offset="1" stop-color="#670C0C"/>
</linearGradient>
<linearGradient id="paint1_linear_11_11" x1="393.435" y1="357.95" x2="377.603" y2="93.1605" gradientUnits="userSpaceOnUse">
<stop offset="0.335" stop-color="#C71717"/>
<stop offset="1" stop-color="#670C0C"/>
</linearGradient>
<linearGradient id="paint2_linear_11_11" x1="393.435" y1="357.95" x2="377.603" y2="93.1605" gradientUnits="userSpaceOnUse">
<stop offset="0.335" stop-color="#C71717"/>
<stop offset="1" stop-color="#670C0C"/>
</linearGradient>
<linearGradient id="paint3_linear_11_11" x1="26.7734" y1="63.526" x2="41.7636" y2="327.854" gradientUnits="userSpaceOnUse">
<stop offset="0.335" stop-color="#C71717"/>
<stop offset="1" stop-color="#670C0C"/>
</linearGradient>
<linearGradient id="paint4_linear_11_11" x1="26.7734" y1="63.526" x2="41.7636" y2="327.854" gradientUnits="userSpaceOnUse">
<stop offset="0.335" stop-color="#C71717"/>
<stop offset="1" stop-color="#670C0C"/>
</linearGradient>
<linearGradient id="paint5_linear_11_11" x1="26.7734" y1="63.526" x2="41.7636" y2="327.854" gradientUnits="userSpaceOnUse">
<stop offset="0.335" stop-color="#C71717"/>
<stop offset="1" stop-color="#670C0C"/>
</linearGradient>
<linearGradient id="paint6_linear_11_11" x1="179.458" y1="185.017" x2="164.125" y2="401.04" gradientUnits="userSpaceOnUse">
<stop offset="0.335" stop-color="#C71717"/>
<stop offset="1" stop-color="#670C0C"/>
</linearGradient>
<linearGradient id="paint7_linear_11_11" x1="179.458" y1="185.017" x2="164.125" y2="401.04" gradientUnits="userSpaceOnUse">
<stop offset="0.335" stop-color="#C71717"/>
<stop offset="1" stop-color="#670C0C"/>
</linearGradient>
<linearGradient id="paint8_linear_11_11" x1="242.94" y1="235.364" x2="257.888" y2="18.0372" gradientUnits="userSpaceOnUse">
<stop offset="0.335" stop-color="#C71717"/>
<stop offset="1" stop-color="#670C0C"/>
</linearGradient>
<linearGradient id="paint9_linear_11_11" x1="242.94" y1="235.364" x2="257.888" y2="18.0372" gradientUnits="userSpaceOnUse">
<stop offset="0.335" stop-color="#C71717"/>
<stop offset="1" stop-color="#670C0C"/>
</linearGradient>
<clipPath id="clip0_11_11">
<rect width="420" height="420" fill="white"/>
</clipPath>
</defs>
</svg>
