<svg width="738" height="711" viewBox="0 0 738 711" fill="none" xmlns="http://www.w3.org/2000/svg">
<mask id="path-1-inside-1_49_3" fill="white">
<path fill-rule="evenodd" clip-rule="evenodd" d="M226.609 25.0694C245.816 4.47255 274.552 -4.31297 301.993 2.02225L515.216 51.2487C584.838 67.3222 640.596 119.317 661.487 187.648L736.905 434.33C738.061 438.112 737.112 442.223 734.415 445.115V445.115C727.919 452.081 716.015 448.157 714.426 438.765C711.201 419.693 706.275 398.818 699.675 377.23C675.573 298.399 638.284 239.92 616.387 246.615C616.135 246.692 615.887 246.777 615.642 246.87C612.99 247.879 609.504 247.348 608.303 244.778C593.16 212.4 578.368 193.714 567.399 196.246C560.485 197.843 555.901 207.685 553.603 223.696C553 227.904 546.711 229.009 544.899 225.165C526.942 187.084 510.382 165.041 499.41 167.981C492.263 169.896 488.362 182.179 487.476 202.108C487.283 206.468 480.762 208.002 478.741 204.134C464.445 176.768 451.96 161.809 443.427 164.096C421.309 170.022 434.127 289.579 472.056 431.133C488.726 493.344 507.471 549.451 525.126 592.299C538.029 623.615 533.597 660.466 510.497 685.237V685.237C491.465 705.647 462.991 714.352 435.799 708.075L222.173 658.755C152.551 642.682 96.7929 590.686 75.902 522.355L0.483885 275.674C-0.672319 271.892 0.276856 267.781 2.97386 264.888V264.888C9.55671 257.829 21.6788 261.966 23.1393 271.507C26.3052 292.189 31.563 315.229 38.8742 339.143C62.9754 417.975 100.265 476.453 122.162 469.758C125.236 468.818 129.212 469.395 130.58 472.304C145.607 504.246 160.263 522.64 171.151 520.127C177.422 518.679 181.776 510.45 184.246 496.989C185.204 491.763 193.222 490.37 195.533 495.154C212.761 530.804 228.552 551.229 239.139 548.392C245.675 546.641 249.496 536.219 250.779 519.208C251.189 513.768 259.533 511.813 262.133 516.609C275.456 541.187 287.056 554.439 295.123 552.278C317.241 546.351 304.423 426.794 266.494 285.24C249.388 221.4 230.096 163.988 212.04 120.735C198.631 88.6135 202.87 50.5262 226.609 25.0694V25.0694Z"/>
</mask>
<path fill-rule="evenodd" clip-rule="evenodd" d="M226.609 25.0694C245.816 4.47255 274.552 -4.31297 301.993 2.02225L515.216 51.2487C584.838 67.3222 640.596 119.317 661.487 187.648L736.905 434.33C738.061 438.112 737.112 442.223 734.415 445.115V445.115C727.919 452.081 716.015 448.157 714.426 438.765C711.201 419.693 706.275 398.818 699.675 377.23C675.573 298.399 638.284 239.92 616.387 246.615C616.135 246.692 615.887 246.777 615.642 246.87C612.99 247.879 609.504 247.348 608.303 244.778C593.16 212.4 578.368 193.714 567.399 196.246C560.485 197.843 555.901 207.685 553.603 223.696C553 227.904 546.711 229.009 544.899 225.165C526.942 187.084 510.382 165.041 499.41 167.981C492.263 169.896 488.362 182.179 487.476 202.108C487.283 206.468 480.762 208.002 478.741 204.134C464.445 176.768 451.96 161.809 443.427 164.096C421.309 170.022 434.127 289.579 472.056 431.133C488.726 493.344 507.471 549.451 525.126 592.299C538.029 623.615 533.597 660.466 510.497 685.237V685.237C491.465 705.647 462.991 714.352 435.799 708.075L222.173 658.755C152.551 642.682 96.7929 590.686 75.902 522.355L0.483885 275.674C-0.672319 271.892 0.276856 267.781 2.97386 264.888V264.888C9.55671 257.829 21.6788 261.966 23.1393 271.507C26.3052 292.189 31.563 315.229 38.8742 339.143C62.9754 417.975 100.265 476.453 122.162 469.758C125.236 468.818 129.212 469.395 130.58 472.304C145.607 504.246 160.263 522.64 171.151 520.127C177.422 518.679 181.776 510.45 184.246 496.989C185.204 491.763 193.222 490.37 195.533 495.154C212.761 530.804 228.552 551.229 239.139 548.392C245.675 546.641 249.496 536.219 250.779 519.208C251.189 513.768 259.533 511.813 262.133 516.609C275.456 541.187 287.056 554.439 295.123 552.278C317.241 546.351 304.423 426.794 266.494 285.24C249.388 221.4 230.096 163.988 212.04 120.735C198.631 88.6135 202.87 50.5262 226.609 25.0694V25.0694Z" fill="#C71A1A"/>
<path d="M699.675 377.23L724.539 369.628L724.539 369.628L699.675 377.23ZM616.387 246.615L608.785 221.751L608.784 221.752L616.387 246.615ZM615.642 246.87L624.889 271.171L624.89 271.17L615.642 246.87ZM608.303 244.778L631.854 233.764L631.854 233.764L608.303 244.778ZM567.399 196.246L573.248 221.58L573.248 221.58L567.399 196.246ZM553.603 223.696L527.867 220.003L527.867 220.003L553.603 223.696ZM544.899 225.165L521.382 236.254L521.382 236.254L544.899 225.165ZM499.41 167.981L506.139 193.095L506.139 193.095L499.41 167.981ZM487.476 202.108L461.502 200.953L461.502 200.953L487.476 202.108ZM478.741 204.134L455.697 216.173L455.697 216.173L478.741 204.134ZM443.427 164.096L450.156 189.21L450.156 189.21L443.427 164.096ZM472.056 431.133L497.171 424.404L497.171 424.404L472.056 431.133ZM38.8742 339.143L14.0103 346.745L38.8742 339.143ZM122.162 469.758L129.764 494.622L129.764 494.622L122.162 469.758ZM130.58 472.304L107.054 483.371L107.054 483.372L130.58 472.304ZM171.151 520.127L177 545.46L177 545.46L171.151 520.127ZM184.246 496.989L158.672 492.296L158.672 492.296L184.246 496.989ZM195.533 495.154L172.123 506.466L172.123 506.466L195.533 495.154ZM239.139 548.392L245.868 573.506L245.868 573.506L239.139 548.392ZM250.779 519.208L224.853 517.252L224.853 517.252L250.779 519.208ZM262.133 516.609L239.275 528.999L239.275 528.999L262.133 516.609ZM295.123 552.278L301.852 577.392L301.852 577.392L295.123 552.278ZM266.494 285.24L291.608 278.511L291.608 278.511L266.494 285.24ZM212.04 120.735L188.046 130.751L212.04 120.735ZM222.173 658.755L216.324 684.089L222.173 658.755ZM435.799 708.075L441.648 682.741L435.799 708.075ZM714.426 438.765L740.062 434.43L740.062 434.43L714.426 438.765ZM736.905 434.33L712.041 441.931L736.905 434.33ZM525.126 592.299L501.086 602.204L525.126 592.299ZM515.216 51.2487L509.367 76.5823L515.216 51.2487ZM661.487 187.648L636.623 195.25L661.487 187.648ZM521.065 25.9151L307.841 -23.3114L296.144 27.3559L509.367 76.5823L521.065 25.9151ZM761.769 426.728L686.351 180.047L636.623 195.25L712.041 441.931L761.769 426.728ZM674.811 384.831C681.107 405.426 685.765 425.21 688.79 443.1L740.062 434.43C736.638 414.177 731.443 392.21 724.539 369.628L674.811 384.831ZM623.988 271.479C616.513 273.765 613.644 268.968 618.639 273.117C622.661 276.456 628.438 283.097 635.282 293.829C648.765 314.974 663.245 347.003 674.811 384.831L724.539 369.628C712.003 328.625 695.788 292 679.127 265.871C670.898 252.967 661.741 241.317 651.859 233.111C642.951 225.714 627.209 216.118 608.785 221.751L623.988 271.479ZM624.89 271.17C624.593 271.283 624.293 271.386 623.99 271.479L608.784 221.752C607.978 221.998 607.181 222.271 606.393 222.571L624.89 271.17ZM584.751 255.793C589.483 265.912 598.289 270.735 605.305 272.435C612.083 274.078 618.973 273.422 624.889 271.171L606.395 222.57C609.659 221.328 613.481 220.911 617.552 221.898C621.862 222.942 628.324 226.215 631.854 233.764L584.751 255.793ZM573.248 221.58C567.311 222.951 563.335 220.757 562.901 220.496C562.588 220.308 563.775 221.004 566.265 224.009C571.182 229.943 577.569 240.436 584.751 255.793L631.854 233.764C623.894 216.743 615.313 201.703 606.306 190.832C601.834 185.435 596.32 179.911 589.676 175.92C582.911 171.856 572.973 168.276 561.551 170.913L573.248 221.58ZM579.34 227.389C579.799 224.185 580.328 221.619 580.863 219.633C581.408 217.608 581.875 216.499 582.091 216.06C582.332 215.571 582.031 216.377 580.769 217.604C579.365 218.968 576.851 220.748 573.248 221.58L561.551 170.913C547.114 174.246 539.301 185.255 535.449 193.071C531.428 201.228 529.197 210.737 527.867 220.003L579.34 227.389ZM521.382 236.254C528.51 251.37 543.854 254.835 554.104 253.075C564.266 251.33 577.063 243.259 579.34 227.389L527.867 220.003C529.54 208.341 538.891 202.926 545.305 201.825C551.807 200.709 563.1 202.804 568.415 214.076L521.382 236.254ZM506.139 193.095C502.596 194.045 499.462 193.769 497.299 193.212C495.303 192.698 494.252 191.99 494.21 191.962C494.137 191.913 494.583 192.207 495.527 193.148C496.446 194.065 497.631 195.39 499.066 197.222C505.068 204.885 512.729 217.902 521.382 236.254L568.415 214.076C559.112 194.346 549.514 177.301 540.004 165.159C535.319 159.176 529.676 153.104 523.032 148.68C516.529 144.349 505.588 139.409 492.681 142.867L506.139 193.095ZM513.451 203.263C513.848 194.318 514.882 189.091 515.703 186.685C516.095 185.535 516.059 186.183 514.964 187.553C513.711 189.12 510.861 191.83 506.139 193.095L492.681 142.867C476.008 147.335 469.191 161.972 466.488 169.894C463.35 179.091 461.99 189.969 461.502 200.953L513.451 203.263ZM455.697 216.173C463.667 231.429 479.651 233.871 489.702 231.526C499.713 229.19 512.702 220.106 513.451 203.263L461.502 200.953C462.057 188.47 471.689 182.333 477.886 180.887C484.123 179.431 495.837 180.706 501.786 192.095L455.697 216.173ZM450.156 189.21C443.273 191.054 438.387 188.551 437.463 188.014C436.607 187.516 437.253 187.697 439.299 190.051C443.303 194.658 448.895 203.153 455.697 216.173L501.786 192.095C494.292 177.749 486.492 165.081 478.547 155.939C474.617 151.418 469.649 146.578 463.605 143.063C457.494 139.509 447.848 135.994 436.698 138.981L450.156 189.21ZM497.171 424.404C478.442 354.51 466.074 290.602 461.076 243.982C458.555 220.467 458.043 202.527 459.126 190.805C459.681 184.786 460.526 182.013 460.796 181.358C461.326 180.071 459.065 186.823 450.156 189.21L436.698 138.981C422.26 142.85 415.562 154.635 412.707 161.572C409.592 169.143 408.106 177.789 407.346 186.024C405.796 202.809 406.712 224.716 409.372 249.525C414.736 299.554 427.741 366.202 446.942 437.862L497.171 424.404ZM549.165 582.394C532.026 540.795 513.618 485.785 497.171 424.404L446.942 437.862C463.834 500.903 482.917 558.106 501.086 602.204L549.165 582.394ZM216.324 684.089L429.951 733.408L441.648 682.741L228.021 633.421L216.324 684.089ZM-24.38 283.275L51.0381 529.957L100.766 514.754L25.3478 268.072L-24.38 283.275ZM63.7382 331.542C56.7607 308.72 51.7994 286.907 48.8399 267.573L-2.56135 275.441C0.81107 297.472 6.36523 321.739 14.0103 346.745L63.7382 331.542ZM114.561 444.894C122.036 442.609 124.905 447.405 119.91 443.257C115.888 439.917 110.11 433.276 103.267 422.544C89.7838 401.4 75.3034 369.37 63.7382 331.542L14.0103 346.745C26.5462 387.748 42.761 424.373 59.4223 450.502C67.6509 463.406 76.8076 475.056 86.6898 483.262C95.5976 490.659 111.34 500.255 129.764 494.622L114.561 444.894ZM154.107 461.236C149.224 450.857 140.197 446.098 133.363 444.376C126.725 442.703 120.119 443.195 114.56 444.894L129.764 494.622C127.28 495.382 124.198 495.692 120.659 494.8C116.923 493.859 110.568 490.842 107.054 483.371L154.107 461.236ZM165.302 494.793C171.194 493.433 175.159 495.585 175.636 495.869C175.983 496.076 174.835 495.422 172.385 492.483C167.543 486.678 161.228 476.373 154.107 461.236L107.054 483.372C114.959 500.176 123.486 515.04 132.45 525.789C136.903 531.127 142.399 536.598 149.027 540.545C155.784 544.569 165.664 548.077 177 545.46L165.302 494.793ZM158.672 492.296C158.209 494.823 157.716 496.77 157.259 498.209C156.792 499.678 156.452 500.334 156.402 500.424C156.337 500.54 156.821 499.611 158.186 498.393C159.67 497.068 162.063 495.541 165.302 494.793L177 545.46C190.094 542.437 197.77 533.027 201.845 525.702C205.964 518.297 208.333 509.776 209.819 501.681L158.672 492.296ZM218.943 483.841C211.365 468.158 195.38 464.954 185.094 466.673C174.9 468.378 161.628 476.187 158.672 492.296L209.819 501.681C207.822 512.564 199.038 517.064 193.67 517.961C188.21 518.874 177.39 517.365 172.123 506.466L218.943 483.841ZM232.409 523.278C239.568 521.36 244.271 524.368 244.299 524.386C244.394 524.446 242.929 523.435 240.066 519.885C234.466 512.94 227.221 500.97 218.943 483.841L172.123 506.466C181.073 524.987 190.337 541.055 199.586 552.525C204.148 558.183 209.693 563.975 216.264 568.181C222.769 572.345 233.416 576.842 245.868 573.506L232.409 523.278ZM224.853 517.252C224.587 520.773 224.213 523.63 223.789 525.878C223.356 528.171 222.935 529.487 222.709 530.067C222.449 530.732 222.674 529.848 223.931 528.406C225.342 526.786 228.124 524.426 232.409 523.278L245.868 573.506C261.194 569.399 268.168 556.612 271.148 548.977C274.434 540.56 275.98 530.775 276.705 521.164L224.853 517.252ZM284.991 504.218C276.452 488.466 259.822 486.415 249.777 488.738C239.769 491.053 226.158 499.944 224.853 517.252L276.705 521.164C275.81 533.033 266.577 538.226 261.493 539.401C256.373 540.586 245.214 539.955 239.275 528.999L284.991 504.218ZM288.394 527.164C294.886 525.424 299.637 527.566 300.867 528.235C301.963 528.832 301.584 528.897 299.815 526.956C296.334 523.137 291.28 515.821 284.991 504.218L239.275 528.999C246.309 541.974 253.716 553.573 261.383 561.985C265.188 566.159 270.054 570.668 276.01 573.91C282.101 577.224 291.327 580.212 301.852 577.392L288.394 527.164ZM241.38 291.969C260.108 361.863 272.476 425.771 277.474 472.391C279.995 495.906 280.507 513.846 279.425 525.568C278.869 531.587 278.024 534.36 277.754 535.015C277.225 536.302 279.485 529.551 288.394 527.164L301.852 577.392C316.29 573.523 322.989 561.739 325.843 554.801C328.958 547.23 330.444 538.584 331.204 530.349C332.754 513.564 331.838 491.657 329.178 466.848C323.814 416.819 310.809 350.171 291.608 278.511L241.38 291.969ZM188.046 130.751C205.558 172.699 224.499 228.971 241.38 291.969L291.608 278.511C274.276 213.828 254.634 155.277 236.033 110.719L188.046 130.751ZM236.033 110.719C225.94 86.5405 229.882 59.6821 245.624 42.8014L207.594 7.33746C175.857 41.3704 171.321 90.6866 188.046 130.751L236.033 110.719ZM21.9891 282.62C17.4081 287.533 11.007 288.055 6.76049 286.64C2.64069 285.268 -1.64765 281.41 -2.56135 275.441L48.8399 267.573C44.3613 238.315 6.55761 222.922 -16.0413 247.157L21.9891 282.62ZM25.3478 268.072C26.9074 273.173 25.6271 278.719 21.9891 282.62L-16.0413 247.157C-25.0734 256.842 -28.2521 270.611 -24.38 283.275L25.3478 268.072ZM228.021 633.421C167.451 619.437 118.941 574.202 100.766 514.754L51.0381 529.957C74.6447 607.171 137.651 665.926 216.324 684.089L228.021 633.421ZM491.482 667.505C478.785 681.121 459.789 686.929 441.648 682.741L429.951 733.408C466.193 741.775 504.145 730.172 529.513 702.969L491.482 667.505ZM715.399 427.383C719.893 422.564 726.215 421.93 730.553 423.327C734.772 424.686 739.066 428.538 740.062 434.43L688.79 443.1C693.705 472.164 731.175 486.712 753.43 462.847L715.399 427.383ZM712.041 441.931C710.481 436.83 711.762 431.285 715.399 427.383L753.43 462.847C762.462 453.161 765.641 439.393 761.769 426.728L712.041 441.931ZM501.086 602.204C510.663 625.447 506.716 651.169 491.482 667.505L529.513 702.969C560.477 669.764 565.394 621.783 549.165 582.394L501.086 602.204ZM307.841 -23.3114C271.35 -31.7361 233.135 -20.0529 207.594 7.33746L245.624 42.8014C258.496 28.998 277.754 23.1102 296.144 27.3559L307.841 -23.3114ZM509.367 76.5823C569.938 90.5662 618.448 135.802 636.623 195.25L686.351 180.047C662.744 102.833 599.737 44.0781 521.065 25.9151L509.367 76.5823Z" fill="white" mask="url(#path-1-inside-1_49_3)"/>
</svg>
