<svg width="738" height="711" viewBox="0 0 738 711" fill="none" xmlns="http://www.w3.org/2000/svg">
<path d="M614.925 241.834L616.387 246.615L614.924 241.834C614.567 241.943 614.213 242.064 613.863 242.197C613.669 242.271 613.432 242.326 613.185 242.344C612.976 242.359 612.801 242.345 612.673 242.321C605.079 226.128 597.44 213.046 590.136 204.231C586.464 199.8 582.698 196.225 578.863 193.922C575.005 191.604 570.686 190.356 566.275 191.374C560.706 192.66 556.882 197.087 554.285 202.355C551.784 207.429 550.017 214.054 548.832 221.787C539.997 203.191 531.389 188.216 523.471 178.107C519.438 172.957 515.397 168.826 511.392 166.159C507.415 163.511 502.814 161.893 498.116 163.152C492.023 164.784 488.482 170.466 486.363 176.675C484.253 182.859 483.038 191.008 482.542 200.617C475.556 187.37 468.865 176.812 462.697 169.715C459.528 166.069 456.305 163.111 453.048 161.216C449.778 159.315 446 158.23 442.133 159.266C437.123 160.608 434.043 164.907 432.127 169.563C430.162 174.341 428.935 180.615 428.257 187.955C426.896 202.695 427.649 223 430.253 247.287C435.469 295.939 448.217 361.48 467.227 432.427C483.939 494.798 502.749 551.115 520.503 594.204C532.766 623.967 528.427 658.678 506.841 681.827C489.027 700.93 462.375 709.078 436.924 703.203L223.297 653.883C155.416 638.211 101.052 587.516 80.6835 520.893L5.26541 274.212C4.63148 272.138 5.1519 269.884 6.63063 268.298C10.1335 264.542 17.3167 266.514 18.1969 272.264C21.4025 293.205 26.7173 316.481 34.0927 340.605C46.2366 380.326 61.751 415.095 77.1287 439.211C84.798 451.238 92.5901 460.866 100.105 467.106C107.433 473.191 115.659 476.975 123.624 474.54C124.388 474.306 125.219 474.293 125.789 474.436C125.954 474.478 126.054 474.518 126.11 474.547C133.681 490.625 141.295 503.607 148.578 512.339C152.222 516.708 155.962 520.233 159.773 522.502C163.608 524.787 167.897 526.009 172.276 524.999C177.326 523.833 180.948 520.069 183.493 515.493C186.047 510.902 187.88 504.884 189.163 497.891C189.176 497.82 189.202 497.742 189.343 497.621C189.515 497.473 189.819 497.314 190.207 497.249C190.597 497.184 190.872 497.246 190.986 497.294C191.028 497.312 191.028 497.312 191.028 497.318C191.029 497.32 191.029 497.324 191.031 497.329C199.71 515.288 208.158 529.701 215.934 539.344C219.81 544.151 223.707 548.011 227.586 550.495C231.452 552.97 235.9 554.436 240.433 553.222C246.02 551.725 249.452 546.807 251.586 541.341C253.779 535.723 255.107 528.302 255.765 519.584L255.765 519.579C255.768 519.539 255.771 519.492 255.881 519.383C256.034 519.231 256.338 519.039 256.762 518.941C257.187 518.843 257.51 518.89 257.661 518.943C257.751 518.975 257.73 518.978 257.737 518.991C264.47 531.412 270.927 541.282 276.904 547.839C279.886 551.111 282.94 553.773 286.049 555.464C289.183 557.17 292.764 558.086 296.417 557.107C301.427 555.765 304.507 551.466 306.423 546.81C308.388 542.032 309.616 535.758 310.293 528.418C311.654 513.678 310.901 493.373 308.298 469.086C303.082 420.434 290.334 354.893 271.323 283.946C254.174 219.944 234.814 162.313 216.654 118.809C203.882 88.2149 208.065 52.287 230.266 28.4794C248.254 9.18898 275.168 0.960713 300.868 6.8941L514.091 56.1206C581.972 71.7922 636.337 122.488 656.705 189.11L732.123 435.792C732.757 437.865 732.237 440.119 730.758 441.705C727.292 445.422 720.305 443.54 719.356 437.932C716.093 418.633 711.115 397.547 704.456 375.768C692.312 336.047 676.798 301.278 661.42 277.162C653.751 265.135 645.959 255.508 638.443 249.267C631.115 243.182 622.889 239.399 614.925 241.834ZM126.171 474.586C126.17 474.587 126.16 474.581 126.145 474.566C126.164 474.578 126.172 474.585 126.171 474.586Z" fill="#C71A1A" stroke="white" stroke-width="10"/>
</svg>
