<svg width="600" height="600" viewBox="0 0 600 600" fill="none" xmlns="http://www.w3.org/2000/svg">
<path d="M187.778 39.99C203.093 23.5664 226.007 16.5609 247.888 21.6125L392.328 54.9592C461.95 71.0326 517.708 123.028 538.599 191.359L591.075 362.999C591.988 365.986 591.238 369.233 589.108 371.517C583.977 377.019 574.575 373.92 573.321 366.502C570.773 351.438 566.882 334.949 561.669 317.897C542.632 255.632 513.179 209.442 495.883 214.73C493.456 215.472 490.315 215.016 489.235 212.719C477.366 187.49 465.79 172.96 457.19 174.946C452.271 176.081 448.845 182.499 446.887 193.003C446.108 197.181 439.687 198.3 437.835 194.474C424.265 166.437 411.83 150.385 403.488 152.62C398.358 153.995 395.345 162.132 394.313 175.42C393.975 179.771 387.291 181.339 385.207 177.504C374.734 158.232 365.617 147.85 359.269 149.551C341.799 154.232 351.923 248.665 381.882 360.474C395.049 409.611 409.855 453.927 423.799 487.772C433.991 512.507 430.49 541.615 412.245 561.18C397.212 577.301 374.72 584.177 353.243 579.219L208.151 545.722C138.529 529.648 82.7707 477.653 61.8799 409.322L9.37446 237.585C8.47971 234.658 9.21425 231.476 11.3014 229.238C16.4251 223.744 25.8784 227.019 26.9571 234.454C29.4123 251.376 33.6813 270.401 39.7294 290.184C58.766 352.449 88.2193 398.639 105.515 393.351C107.943 392.609 111.083 393.065 112.164 395.362C124.033 420.591 135.609 435.121 144.209 433.135C148.422 432.163 151.539 427.316 153.577 419.347C154.894 414.2 163.113 412.773 165.491 417.524C178.307 443.129 189.965 457.59 197.91 455.461C202.372 454.265 205.232 447.954 206.581 437.588C207.285 432.179 215.891 430.171 218.606 434.903C228.064 451.388 236.275 460.099 242.13 458.53C259.6 453.849 249.476 359.416 219.517 247.607C205.911 196.832 190.555 151.206 176.208 116.961C165.397 91.1553 168.696 60.4526 187.778 39.99Z" fill="#C71A1A"/>
</svg>
